<?xml version="1.0" encoding="UTF-8"?>
<svg id="Layer_2" data-name="Layer 2" xmlns="http://www.w3.org/2000/svg" viewBox="0 0 67.59 67.59">
  <defs>
    <style>
      .cls-1 {
        fill: #fff;
      }

      .cls-2 {
        fill: #ff3d00;
      }
    </style>
  </defs>
  <g id="App_Icons" data-name="App Icons">
    <rect width="67.59" height="67.59" rx="13.52" ry="13.52"/>
    <g>
      <rect class="cls-2" x="17.38" y="20.48" width="25.49" height="25.49" rx="5.1" ry="5.1"/>
      <path class="cls-1" d="M53.91,37.56l-7.44-24.29c-1.02-3.32-4.71-5-7.88-3.57L13.83,20.81c-2.66,1.19-4.01,4.17-3.16,6.96l5.47,17.84c.7,2.27,2.67,3.82,4.94,4.05l-.22,4.72c-.04,.95,1.17,1.38,1.74,.62l4.67-6.21,22.11-3.86c3.42-.6,5.54-4.06,4.53-7.38ZM21.04,27.26c-.07-.23-.04-.48,.06-.69,.11-.2,.3-.37,.54-.44l1.15-.35c.48-.15,.99,.12,1.13,.6,.07,.24,.04,.49-.07,.69-.11,.21-.3,.37-.53,.44l-1.16,.35c-.48,.14-.98-.12-1.13-.6Zm18.13,9.09c-.85,1.09-2.07,1.88-3.65,2.37-1.77,.54-3.68,.43-5.71-.35-.53-.2-1.04-.48-1.52-.83-.32-.23-.24-.74,.14-.85l.05-.02c.26-.08,.48-.26,.59-.49,.12-.22,.15-.48,.08-.73-.14-.56-.76-.86-1.31-.69l-1.88,.57c-.53,.16-1.09-.14-1.26-.67-.08-.26-.05-.54,.07-.77,.12-.23,.33-.41,.59-.49l1.92-.59c.26-.08,.47-.26,.59-.49,.12-.22,.15-.48,.08-.73-.14-.55-.76-.86-1.31-.69l-2.84,.87c-.53,.16-1.09-.14-1.26-.67-.08-.26-.05-.54,.07-.77,.12-.23,.33-.41,.6-.49l4.81-1.47c.27-.08,.48-.26,.6-.49,.12-.22,.15-.48,.08-.73-.15-.55-.77-.86-1.32-.69l-.91,.28c-.08,.03-.16,.04-.24,.04-.45,.03-.88-.26-1.01-.71-.08-.26-.05-.54,.07-.77,.12-.23,.33-.41,.6-.49l4.83-1.48c.73-.22,1.46-.34,2.21-.35,.74-.01,1.31,.03,1.7,.12l.54,.14c.42,.12,.74,.22,.97,.3,.61,.23,.99,.59,1.14,1.08,.15,.49,.12,1.09-.1,1.83-.37,1.26-.86,1.98-1.49,2.18-.36,.11-.94,.06-1.74-.15,0,0,0,0,0,0-.44-.22-.98-.23-1.62-.04-.64,.2-1.17,.61-1.58,1.24-.41,.63-.49,1.35-.24,2.15,.25,.81,.71,1.36,1.38,1.64s1.31,.33,1.91,.15c.6-.18,1.11-.53,1.53-1.05,.42-.51,.79-.82,1.11-.92,.57-.17,1.42,.12,2.55,.88,.61,.42,.98,.85,1.11,1.28,.22,.73-.09,1.56-.95,2.52Z"/>
      <path class="cls-2" d="M52.38,47.93l-22.11,3.86-4.68,6.21c-.57,.76-1.78,.33-1.73-.62l.19-4.32,3.22-4.27,22.11-3.86c3.42-.6,5.54-4.06,4.53-7.38l-7.44-24.28c-.06-.21-.14-.41-.23-.61,1.49,.64,2.71,1.91,3.23,3.61l7.44,24.28c1.01,3.32-1.11,6.78-4.53,7.38Z"/>
    </g>
  </g>
</svg>