<?xml version="1.0" encoding="UTF-8"?>
<svg id="Layer_2" data-name="Layer 2" xmlns="http://www.w3.org/2000/svg" viewBox="0 0 129.85 25.34">
  <defs>
    <style>
      .cls-1 {
        fill: #ff3d00;
      }
    </style>
  </defs>
  <g id="Layer_1-2" data-name="Layer 1">
    <g>
      <path class="cls-1" d="M42.57,16.34l.35-.25c.44-.26,.75-.39,.94-.39,.4,0,.84,.36,1.31,1.09,.29,.45,.43,.82,.43,1.09s-.09,.5-.26,.68c-.18,.18-.38,.34-.61,.49-.23,.14-.46,.28-.67,.41-.21,.13-.65,.3-1.32,.51-.66,.21-1.3,.31-1.92,.31s-1.24-.08-1.87-.24-1.28-.44-1.95-.82c-.67-.38-1.27-.85-1.8-1.4-.53-.55-.97-1.26-1.32-2.12-.34-.86-.52-1.8-.52-2.82s.17-1.93,.51-2.76c.34-.82,.77-1.51,1.3-2.05,.53-.54,1.13-.99,1.8-1.35,1.27-.7,2.55-1.05,3.84-1.05,.61,0,1.23,.09,1.86,.28,.63,.19,1.11,.38,1.43,.57l.47,.27c.23,.14,.42,.26,.55,.35,.34,.27,.51,.58,.51,.93s-.14,.71-.41,1.08c-.51,.7-.96,1.05-1.36,1.05-.23,0-.57-.14-.99-.43-.55-.44-1.27-.66-2.18-.66-.84,0-1.68,.29-2.49,.88-.39,.29-.71,.69-.97,1.21-.26,.52-.39,1.11-.39,1.76s.13,1.24,.39,1.76c.26,.52,.59,.93,.99,1.23,.79,.57,1.62,.86,2.48,.86,.4,0,.78-.05,1.14-.16,.36-.1,.61-.21,.77-.31Z"/>
      <path class="cls-1" d="M48.22,11.09c1.09-1.01,2.34-1.52,3.74-1.52s2.64,.5,3.72,1.51c1.08,1.01,1.62,2.29,1.62,3.85,0,1.08-.28,2.04-.84,2.87-.56,.84-1.24,1.46-2.04,1.85-.8,.4-1.63,.59-2.49,.59s-1.69-.21-2.49-.63c-.81-.42-1.48-1.05-2.04-1.87-.55-.83-.83-1.76-.83-2.8,0-1.56,.55-2.85,1.64-3.86Zm2.44,5.25c.42,.32,.84,.48,1.27,.48s.86-.16,1.29-.49c.43-.32,.64-.81,.64-1.44s-.2-1.11-.6-1.42c-.4-.31-.84-.47-1.31-.47s-.9,.16-1.31,.49c-.4,.32-.6,.8-.6,1.43s.21,1.1,.62,1.42Z"/>
      <path class="cls-1" d="M64.28,9.81c1.3,0,2.38,.5,3.25,1.49,.86,.99,1.3,2.21,1.3,3.64v3.43c0,.3,0,.52-.03,.67-.02,.15-.07,.32-.17,.5-.18,.35-.69,.53-1.52,.53-.92,0-1.46-.24-1.6-.72-.08-.22-.12-.55-.12-.99v-3.43c0-.53-.15-.95-.46-1.25-.31-.3-.71-.45-1.23-.45s-.93,.16-1.25,.47c-.32,.31-.48,.72-.48,1.23v3.45c0,.3,0,.52-.03,.67-.02,.15-.08,.32-.19,.5-.17,.35-.67,.53-1.5,.53s-1.32-.18-1.5-.53c-.09-.19-.15-.37-.17-.52-.02-.15-.03-.37-.03-.67v-6.9c0-.29,0-.5,.03-.65,.02-.15,.08-.31,.19-.5,.18-.32,.68-.49,1.5-.49s1.28,.15,1.46,.45c.13,.22,.19,.49,.19,.8,.05-.09,.17-.22,.35-.39,.18-.17,.36-.31,.53-.41,.44-.3,.93-.45,1.46-.45Z"/>
      <path class="cls-1" d="M70.46,19.16c-.25-.16-.37-.4-.37-.74s.25-.85,.74-1.54c.14-.22,.37-.33,.69-.33s.75,.16,1.3,.48c.55,.32,1.04,.48,1.48,.48,.79,0,1.19-.16,1.19-.47,0-.25-.44-.43-1.31-.55-.82-.12-1.63-.42-2.44-.92-.38-.23-.69-.6-.94-1.1-.25-.5-.37-1.09-.37-1.78,0-2.05,1.41-3.08,4.23-3.08,.92,0,1.87,.22,2.85,.66,.45,.21,.68,.47,.68,.78s-.14,.7-.43,1.15c-.29,.45-.58,.68-.88,.68-.16,0-.45-.1-.87-.29-.42-.19-.88-.29-1.37-.29-.77,0-1.15,.14-1.15,.43,0,.39,.44,.64,1.33,.76,.86,.09,1.69,.34,2.49,.74,.38,.18,.69,.5,.95,.95,.25,.45,.38,1.01,.38,1.69s-.13,1.25-.38,1.72c-.25,.47-.61,.83-1.06,1.06-.83,.4-1.87,.6-3.13,.6s-2.46-.36-3.62-1.09Z"/>
      <path class="cls-1" d="M85.56,13.26l-1.27-.08v2.69c0,.35,.05,.6,.17,.76,.11,.16,.32,.23,.62,.23s.54,0,.7,.03c.16,.02,.33,.08,.52,.19,.3,.17,.45,.6,.45,1.31,0,.82-.18,1.32-.55,1.5-.19,.09-.37,.15-.52,.17-.15,.02-.37,.03-.65,.03-1.35,0-2.38-.31-3.08-.92-.7-.61-1.05-1.64-1.05-3.1v-2.88c-.25,.04-.51,.06-.8,.06s-.52-.11-.71-.33c-.19-.22-.28-.6-.28-1.13s.03-.92,.1-1.16c.06-.24,.16-.41,.27-.52,.21-.17,.47-.25,.78-.25l.64,.08v-2.01c0-.3,0-.52,.03-.66,.02-.14,.08-.3,.19-.47,.17-.32,.67-.49,1.5-.49,.88,0,1.41,.24,1.58,.72,.06,.21,.1,.54,.1,.99v1.91c.57-.05,1-.08,1.3-.08s.51,0,.66,.03c.15,.02,.32,.08,.52,.19,.34,.17,.51,.67,.51,1.5s-.18,1.32-.53,1.5c-.19,.09-.37,.15-.52,.17-.15,.02-.37,.03-.67,.03Z"/>
      <path class="cls-1" d="M95.33,9.92c.25,.08,.45,.21,.61,.4,.16,.19,.24,.49,.24,.91s-.12,.87-.37,1.36c-.25,.49-.6,.74-1.07,.74-.23,0-.46-.05-.67-.16-.21-.1-.5-.16-.85-.16s-.68,.12-.98,.37c-.31,.25-.46,.55-.46,.9v4.09c0,.3,0,.52-.03,.67-.02,.15-.08,.32-.19,.52-.19,.34-.7,.51-1.52,.51-.62,0-1.07-.11-1.34-.33-.21-.18-.32-.46-.35-.84v-7.41c0-.3,0-.52,.03-.67,.02-.15,.07-.31,.17-.5,.18-.35,.69-.53,1.52-.53,.78,0,1.27,.15,1.46,.45,.14,.21,.21,.42,.21,.64,.06-.09,.16-.2,.28-.33,.12-.13,.39-.31,.79-.53,.4-.22,.76-.33,1.06-.33s.56,.02,.77,.05c.21,.03,.44,.09,.68,.17Z"/>
      <path class="cls-1" d="M103.34,10.9c.08-.73,.59-1.09,1.54-1.09,.51,0,.88,.04,1.13,.12,.25,.08,.42,.21,.52,.41,.1,.19,.16,.37,.18,.52,.02,.15,.03,.37,.03,.67v6.82c0,.3,0,.52-.03,.67-.02,.15-.07,.32-.17,.52-.18,.34-.63,.51-1.34,.51s-1.18-.09-1.42-.26c-.24-.18-.38-.43-.42-.77-.48,.69-1.28,1.03-2.41,1.03s-2.17-.51-3.13-1.54c-.96-1.03-1.44-2.22-1.44-3.58s.48-2.55,1.45-3.57c.97-1.02,2.03-1.53,3.19-1.53,.44,0,.84,.08,1.21,.23,.36,.16,.62,.3,.76,.44,.14,.14,.26,.27,.35,.4Zm-3.55,4.05c0,.43,.17,.82,.51,1.16,.34,.34,.75,.52,1.23,.52s.88-.18,1.2-.53c.32-.35,.48-.74,.48-1.16s-.15-.82-.46-1.18c-.31-.36-.71-.55-1.23-.55s-.93,.18-1.25,.55c-.32,.36-.48,.76-.48,1.19Z"/>
      <path class="cls-1" d="M115.18,5.53c.1-.19,.27-.32,.52-.4,.25-.08,.57-.12,.98-.12s.74,.04,.98,.12c.25,.08,.42,.21,.52,.41,.1,.19,.16,.37,.18,.52,.02,.15,.03,.37,.03,.67v11.64c0,.3,0,.52-.03,.67-.02,.15-.08,.32-.19,.5-.19,.35-.74,.53-1.65,.53s-1.41-.32-1.51-.96c-.55,.62-1.31,.94-2.28,.94-1.17,0-2.23-.51-3.2-1.53-.96-1.02-1.44-2.21-1.44-3.57s.48-2.55,1.45-3.58c.97-1.03,2.03-1.54,3.19-1.54,.96,0,1.71,.33,2.24,.97V6.71c0-.3,0-.52,.03-.67,.02-.15,.08-.32,.18-.51Zm-3.17,10.59c.34,.35,.75,.53,1.23,.53s.88-.18,1.2-.53c.32-.35,.48-.74,.48-1.16s-.15-.82-.46-1.18c-.31-.36-.72-.55-1.24-.55s-.94,.18-1.25,.54c-.31,.36-.47,.75-.47,1.18s.17,.82,.51,1.17Z"/>
      <path class="cls-1" d="M129.85,13.71c0,.8-.2,1.39-.59,1.77-.4,.38-.84,.57-1.32,.57h-4.62c0,.36,.21,.67,.64,.92,.43,.25,.86,.37,1.29,.37,.75,0,1.34-.08,1.77-.23l.21-.08c.31-.14,.57-.21,.78-.21,.42,0,.77,.29,1.07,.88,.17,.35,.25,.65,.25,.9,0,1.16-1.38,1.73-4.15,1.73-.96,0-1.82-.17-2.56-.5-.75-.33-1.33-.77-1.74-1.32-.82-1.05-1.23-2.23-1.23-3.53,0-1.64,.53-2.95,1.59-3.93,1.06-.98,2.38-1.47,3.97-1.47,1.81,0,3.13,.64,3.98,1.91,.44,.68,.66,1.41,.66,2.21Zm-4.11,.57c.49,0,.74-.21,.74-.62,0-.3-.11-.54-.34-.72-.23-.18-.55-.27-.97-.27s-.84,.17-1.26,.52c-.42,.34-.62,.71-.62,1.1h2.46Z"/>
    </g>
    <path class="cls-1" d="M23.86,15.56L19.78,2.24c-.56-1.82-2.58-2.74-4.32-1.96L1.87,6.37C.41,7.03-.33,8.66,.14,10.19l3,9.79c.38,1.24,1.47,2.1,2.71,2.22l-.12,2.59c-.02,.52,.64,.76,.95,.34l2.56-3.41,12.13-2.12c1.88-.33,3.04-2.23,2.48-4.05ZM5.82,9.91c-.04-.13-.02-.26,.04-.38,.06-.11,.16-.2,.29-.24l.63-.19c.26-.08,.54,.07,.62,.33,.04,.13,.02,.27-.04,.38-.06,.11-.16,.2-.29,.24l-.63,.19c-.26,.08-.54-.07-.62-.33Zm9.94,4.98c-.47,.6-1.14,1.03-2,1.3-.97,.3-2.02,.23-3.13-.19-.29-.11-.57-.26-.83-.46-.18-.13-.13-.4,.08-.47h.03c.14-.05,.26-.15,.32-.28,.06-.12,.08-.26,.05-.4-.08-.31-.42-.47-.72-.38l-1.03,.31c-.29,.09-.6-.07-.69-.37-.04-.14-.02-.29,.04-.42,.07-.12,.18-.22,.32-.27l1.06-.32c.14-.05,.26-.14,.32-.27,.06-.12,.08-.26,.05-.4-.08-.3-.42-.47-.72-.38l-1.56,.47c-.29,.09-.6-.07-.69-.37-.04-.14-.03-.29,.04-.42,.07-.12,.18-.22,.33-.27l2.64-.81c.15-.04,.26-.14,.33-.27,.06-.12,.08-.26,.05-.4-.08-.3-.42-.47-.72-.38l-.5,.15s-.09,.02-.13,.02c-.25,.01-.48-.14-.56-.39-.04-.14-.03-.29,.04-.42,.07-.12,.18-.22,.33-.27l2.65-.81c.4-.12,.8-.19,1.21-.19,.41,0,.72,.02,.93,.07l.3,.08c.23,.07,.41,.12,.53,.16,.34,.13,.55,.32,.63,.59,.08,.27,.06,.6-.05,1-.2,.69-.47,1.09-.82,1.19-.2,.06-.52,.03-.95-.08,0,0,0,0,0,0-.24-.12-.54-.13-.89-.02-.35,.11-.64,.33-.87,.68-.22,.34-.27,.74-.13,1.18,.14,.45,.39,.75,.76,.9s.72,.18,1.05,.08c.33-.1,.61-.29,.84-.57,.23-.28,.43-.45,.61-.5,.31-.1,.78,.07,1.4,.48,.33,.23,.54,.46,.61,.7,.12,.4-.05,.86-.52,1.38Z"/>
  </g>
</svg>